<svg
            xmlns="http://www.w3.org/2000/svg"
            width="85"
            height="59"
            viewBox="0 0 85 59"
            fill="none"
          >
            <path
              d="M20.8787 58.1213C22.0503 59.2929 23.9497 59.2929 25.1213 58.1213L44.2132 39.0294C45.3848 37.8579 45.3848 35.9584 44.2132 34.7868C43.0416 33.6152 41.1421 33.6152 39.9706 34.7868L23 51.7574L6.02944 34.7868C4.85786 33.6152 2.95837 33.6152 1.7868 34.7868C0.615224 35.9584 0.615224 37.8579 1.7868 39.0294L20.8787 58.1213ZM20 3L20 56H26L26 3H20Z"
              fill="white"
            />
            <path
              d="M64.1213 0.878683C62.9497 -0.292889 61.0503 -0.292889 59.8787 0.878683L40.7868 19.9706C39.6152 21.1421 39.6152 23.0416 40.7868 24.2132C41.9584 25.3848 43.8579 25.3848 45.0294 24.2132L62 7.24264L78.9706 24.2132C80.1421 25.3848 82.0416 25.3848 83.2132 24.2132C84.3848 23.0416 84.3848 21.1421 83.2132 19.9706L64.1213 0.878683ZM65 56V3H59L59 56H65Z"
              fill="white"
            />
          </svg>